<?xml version="1.0" encoding="utf-8"?>
<!-- Generator: Adobe Illustrator 18.0.0, SVG Export Plug-In . SVG Version: 6.00 Build 0)  -->
<!DOCTYPE svg PUBLIC "-//W3C//DTD SVG 1.1//EN" "http://www.w3.org/Graphics/SVG/1.1/DTD/svg11.dtd">
<svg version="1.1" xmlns="http://www.w3.org/2000/svg" xmlns:xlink="http://www.w3.org/1999/xlink" x="0px" y="0px"
	 viewBox="0 0 474.093 129.151" enable-background="new 0 0 474.093 129.151" xml:space="preserve">
<g id="BNackground" display="none">
	<rect x="14.198" y="-20.983" display="inline" fill="#606060" width="445.673" height="170"/>
</g>
<g id="Layer_1">
</g>
<g id="Layer_2">
	<g>
		<g>
			<polygon fill="#FFFFFF" points="40.847,0 0,26.669 28.243,49.286 69.427,23.856 			"/>
			<polygon fill="#FFFFFF" points="0,71.903 40.847,98.573 69.427,74.717 28.243,49.286 			"/>
			<polygon fill="#FFFFFF" points="69.427,74.717 98.01,98.573 138.855,71.903 110.612,49.286 			"/>
			<polygon fill="#FFFFFF" points="138.855,26.669 98.01,0 69.427,23.856 110.612,49.286 			"/>
			<polygon fill="#FFFFFF" points="69.511,79.849 40.847,103.634 28.581,95.627 28.581,104.604 69.511,129.151 110.442,104.604 
				110.442,95.627 98.178,103.634 			"/>
		</g>
		<path fill="#FFFFFF" d="M159.652,98.525h18.884c5.503,0,13.273,0,19.642-4.956c7.771-5.922,11.764-17.984,11.764-31.45
			c0-35.327-22.341-35.435-33.348-35.435h-16.941V98.525z M175.408,39.074h2.695c6.368,0,15.11,0.754,15.11,22.832
			c0,23.479-8.849,24.235-15.11,24.235h-2.695V39.074z"/>
		<path fill="#FFFFFF" d="M215.366,45.428v53.097h14.782v-22.94c0-4.094,0-16.372,10.898-16.372c0.541,0,1.187,0,2.48,0.215V44.997
			c-0.753-0.215-1.505-0.326-2.589-0.326c-8.631,0-11.221,9.05-12.516,13.573V45.428H215.366z"/>
		<path fill="#FFFFFF" d="M267.229,44.24c-15.862,0-21.688,11.096-21.688,27.682c0,17.126,6.256,27.679,21.582,27.679
			c15.54,0,21.691-10.66,21.691-27.679C288.814,55.336,282.987,44.24,267.229,44.24z M267.229,54.582c4.535,0,6.26,3.662,6.26,17.34
			c0,14.219-1.943,17.342-6.26,17.342c-4.424,0-6.365-3.234-6.365-17.342c0-13.03,1.51-17.34,6.259-17.34H267.229z"/>
		<path fill="#FFFFFF" d="M293.199,45.428v71.085h14.569V94.65c1.618,1.723,4.316,4.628,10.144,4.628
			c16.941,0,18.022-20.463,18.022-28.002c0-8.939-1.726-17.233-6.908-22.509c-2.588-2.585-6.582-4.095-10.143-4.095
			c-7.231,0-10.145,5.277-11.98,8.725v-7.968H293.199z M307.768,66.753c0-4.739,0-12.276,6.689-12.276c5.72,0,6.151,7.43,6.151,16.8
			c0,11.203-0.537,17.772-6.583,17.772c-6.257,0-6.257-4.525-6.257-12.171V66.753z"/>
		<path fill="#FFFFFF" d="M340.335,26.685v71.84h8.743c1.186-3.77,1.727-4.845,2.807-6.894c1.292,2.692,3.776,7.97,12.303,7.97
			c2.806,0,5.719-0.537,8.632-2.044c9.713-5.062,10.361-21.004,10.361-25.958c0-12.816-4.101-26.928-17.162-26.928
			c-6.365,0-9.276,3.449-11.115,5.711V26.685H340.335z M354.904,64.168c0-2.692,0-5.385,1.73-7.433
			c1.078-1.399,2.804-2.259,4.747-2.259c4.208,0,6.474,3.553,6.474,17.554c0,13.681-2.048,17.34-6.691,17.34
			c-6.26,0-6.26-6.89-6.26-12.924V64.168z"/>
		<path fill="#FFFFFF" d="M408.586,44.24c-15.866,0-21.694,11.096-21.694,27.682c0,17.126,6.261,27.679,21.585,27.679
			c15.54,0,21.691-10.66,21.691-27.679C430.168,55.336,424.338,44.24,408.586,44.24z M408.586,54.582
			c4.529,0,6.257,3.662,6.257,17.34c0,14.219-1.941,17.342-6.257,17.342c-4.427,0-6.372-3.234-6.372-17.342
			c0-13.03,1.513-17.34,6.263-17.34H408.586z"/>
		<path fill="#FFFFFF" d="M430.495,45.428l13.708,25.957l-15.755,27.14h12.839l8.958-15.938l7.769,15.938h16.08l-15.864-29.727
			l13.703-23.371h-12.838l-6.8,12.276l-5.719-12.276H430.495z"/>
	</g>
	<g display="none">
		
			<line display="inline" fill="none" stroke="#377ABC" stroke-width="0.25" stroke-miterlimit="10" x1="69.739" y1="-582.109" x2="416.578" y2="-582.109"/>
		
			<line display="inline" fill="none" stroke="#377ABC" stroke-width="0.25" stroke-miterlimit="10" x1="69.739" y1="-529.988" x2="416.578" y2="-529.988"/>
		
			<line display="inline" fill="none" stroke="#377ABC" stroke-width="0.25" stroke-miterlimit="10" x1="534.015" y1="-622.709" x2="534.015" y2="-494.944"/>
		
			<line display="inline" fill="none" stroke="#377ABC" stroke-width="0.25" stroke-miterlimit="10" x1="627.896" y1="-622.709" x2="627.896" y2="-494.944"/>
		
			<line display="inline" fill="none" stroke="#377ABC" stroke-width="0.25" stroke-miterlimit="10" x1="534.015" y1="-416.434" x2="534.015" y2="-288.668"/>
		
			<line display="inline" fill="none" stroke="#377ABC" stroke-width="0.25" stroke-miterlimit="10" x1="627.896" y1="-416.434" x2="627.896" y2="-288.668"/>
		
			<line display="inline" fill="none" stroke="#377ABC" stroke-width="0.25" stroke-miterlimit="10" x1="534.015" y1="-209.744" x2="534.015" y2="-81.979"/>
		
			<line display="inline" fill="none" stroke="#377ABC" stroke-width="0.25" stroke-miterlimit="10" x1="627.896" y1="-209.744" x2="627.896" y2="-81.979"/>
		
			<line display="inline" fill="none" stroke="#377ABC" stroke-width="0.25" stroke-miterlimit="10" x1="534.015" y1="-2.971" x2="534.015" y2="124.793"/>
		
			<line display="inline" fill="none" stroke="#377ABC" stroke-width="0.25" stroke-miterlimit="10" x1="627.896" y1="-2.971" x2="627.896" y2="124.793"/>
		
			<line display="inline" fill="none" stroke="#377ABC" stroke-width="0.25" stroke-miterlimit="10" x1="69.739" y1="-377.14" x2="416.578" y2="-377.14"/>
		
			<line display="inline" fill="none" stroke="#377ABC" stroke-width="0.25" stroke-miterlimit="10" x1="69.739" y1="-325.019" x2="416.578" y2="-325.019"/>
		
			<line display="inline" fill="none" stroke="#377ABC" stroke-width="0.25" stroke-miterlimit="10" x1="69.739" y1="-169.686" x2="416.578" y2="-169.686"/>
		
			<line display="inline" fill="none" stroke="#377ABC" stroke-width="0.25" stroke-miterlimit="10" x1="69.739" y1="-117.565" x2="416.578" y2="-117.565"/>
		
			<line display="inline" fill="none" stroke="#377ABC" stroke-width="0.25" stroke-miterlimit="10" x1="69.739" y1="37.086" x2="416.578" y2="37.086"/>
		
			<line display="inline" fill="none" stroke="#377ABC" stroke-width="0.25" stroke-miterlimit="10" x1="69.739" y1="89.208" x2="416.578" y2="89.208"/>
	</g>
</g>
</svg>
