<?xml version="1.0" encoding="utf-8"?>
<!-- Generator: Adobe Illustrator 18.0.0, SVG Export Plug-In . SVG Version: 6.00 Build 0)  -->
<!DOCTYPE svg PUBLIC "-//W3C//DTD SVG 1.1//EN" "http://www.w3.org/Graphics/SVG/1.1/DTD/svg11.dtd">
<svg version="1.1" id="Layer_1" xmlns="http://www.w3.org/2000/svg" xmlns:xlink="http://www.w3.org/1999/xlink" x="0px" y="0px"
	 viewBox="0 0 357.824 244.705" enable-background="new 0 0 357.824 244.705" xml:space="preserve">
<path fill="#FFFFFF" d="M58.221,154.913c6.867,0,13.736-0.098,20.601,0.028c6.569,0.121,13.056,0.98,19.367,2.912
	c5.554,1.7,10.65,4.256,15.09,8.046c2.993,2.555,5.5,5.531,7.683,8.793c1.851,2.764,3.431,5.683,4.985,8.618
	c0.966,1.824,1.952,3.637,2.911,5.464c2.938,5.597,7.11,10.098,12.198,13.794c6.797,4.938,14.307,8.354,22.411,10.496
	c4.792,1.266,9.67,1.971,14.625,2.042c5.093,0.073,10.116-0.538,15.067-1.744c7.788-1.897,15.047-5.006,21.716-9.466
	c2.055-1.374,4.002-2.887,5.842-4.54c2.826-2.538,5.259-5.402,7.151-8.701c1.183-2.062,2.293-4.165,3.443-6.246
	c1.432-2.591,2.838-5.198,4.317-7.762c1.122-1.945,2.443-3.762,3.85-5.515c4.888-6.088,11.124-10.218,18.473-12.732
	c3.875-1.326,7.855-2.184,11.911-2.728c4.412-0.592,8.843-0.808,13.292-0.803c12.747,0.013,25.495,0.005,38.242,0.005
	c0.404,0,0.809-0.016,1.212,0.007c0.995,0.058,1.468,0.866,1.063,1.802c-0.071,0.164-0.162,0.32-0.248,0.477
	c-3.006,5.485-6.412,10.699-10.498,15.449c-2.172,2.524-4.524,4.862-7.204,6.855c-1.263,0.939-2.589,1.775-3.996,2.483
	c-2.488,1.252-5.107,1.892-7.906,1.878c-5.835-0.029-11.67-0.013-17.505-0.005c-1.346,0.002-2.686,0.076-4.015,0.346
	c-2.594,0.527-4.771,1.774-6.592,3.675c-1.218,1.271-2.241,2.692-3.129,4.203c-1.478,2.514-2.971,5.021-4.351,7.589
	c-6.56,12.209-15.481,22.29-26.988,30.046c-8.534,5.753-17.857,9.72-27.836,12.176c-4.625,1.138-9.313,1.922-14.052,2.366
	c-4.292,0.402-8.596,0.564-12.91,0.45c-3.322-0.088-6.636-0.267-9.936-0.661c-19.075-2.281-36.019-9.333-50.199-22.517
	c-6.8-6.323-12.288-13.658-16.688-21.828c-1.382-2.566-2.872-5.076-4.352-7.588c-0.935-1.588-2.012-3.077-3.311-4.4
	c-2.237-2.278-4.955-3.503-8.121-3.748c-0.894-0.069-1.793-0.105-2.689-0.107c-5.566-0.009-11.132-0.059-16.697,0.015
	c-3.62,0.048-6.899-0.929-9.965-2.781c-2.202-1.33-4.185-2.936-6.04-4.708c-2.473-2.364-4.675-4.965-6.717-7.705
	c-2.659-3.568-5.031-7.321-7.168-11.222c-0.151-0.275-0.309-0.549-0.428-0.838c-0.355-0.862,0.135-1.643,1.063-1.7
	c0.358-0.022,0.718-0.008,1.077-0.008c7.316,0,14.632,0,21.949,0C58.221,154.887,58.221,154.9,58.221,154.913z"/>
<path fill="#FFFFFF" d="M123.844,98.243c0-5.473-0.001-10.813,0.004-16.152c0-0.121,0.065-0.242,0.119-0.428
	c0.318,0.086,0.618,0.151,0.906,0.248c5.921,1.991,11.976,3.445,18.129,4.495c4.999,0.853,10.009,0.862,15.008,0.041
	c1.364-0.224,2.709-0.62,4.027-1.049c0.844-0.275,1.656-0.696,2.422-1.153c4.322-2.576,4.721-8,2.751-11.201
	c-0.908-1.475-2.081-2.696-3.415-3.774c-1.4-1.132-2.922-2.083-4.501-2.943c-3-1.634-6.15-2.933-9.337-4.149
	c-2.765-1.055-5.539-2.089-8.28-3.201c-3.041-1.233-5.953-2.729-8.678-4.569c-2.506-1.692-4.783-3.64-6.726-5.967
	c-3.339-4.001-5.31-8.594-5.963-13.76c-0.512-4.05-0.352-8.068,0.678-12.023c1.568-6.017,4.986-10.774,9.996-14.413
	c3.712-2.696,7.852-4.493,12.235-5.759c3.324-0.961,6.717-1.575,10.156-1.974c3.934-0.457,7.879-0.611,11.828-0.452
	c7.133,0.287,14.074,1.575,20.717,4.269c0.703,0.285,1.388,0.616,2.103,0.936c0.044,0.303,0.114,0.561,0.114,0.82
	c0.006,5.072,0.005,10.145,0.002,15.217c0,0.214-0.037,0.429-0.067,0.755c-0.399-0.135-0.733-0.221-1.044-0.359
	c-3.57-1.587-7.217-2.961-10.97-4.05c-3.282-0.952-6.603-1.709-10.028-1.878c-3.885-0.192-7.709,0.172-11.409,1.457
	c-1.623,0.564-3.142,1.333-4.457,2.45c-2.556,2.171-3.655,4.926-3.221,8.264c0.185,1.419,0.837,2.641,1.695,3.76
	c0.909,1.186,2.019,2.163,3.226,3.033c2.013,1.449,4.208,2.568,6.474,3.559c3.416,1.493,6.96,2.631,10.504,3.769
	c4.769,1.531,9.257,3.65,13.423,6.438c2.622,1.755,5.031,3.762,7.12,6.137c2.558,2.909,4.451,6.177,5.387,9.967
	c0.368,1.489,0.59,3.001,0.614,4.526c0.06,3.832-0.337,7.619-1.385,11.317c-2.121,7.486-6.568,13.169-13.294,17.071
	c-3.76,2.181-7.812,3.599-12.036,4.543c-5.278,1.179-10.632,1.632-16.033,1.67c-4.318,0.031-8.613-0.219-12.88-0.872
	c-4.802-0.735-9.499-1.883-14.001-3.745C125.136,98.858,124.535,98.559,123.844,98.243z"/>
<path fill="#FFFFFF" d="M51.111,113.167c14.409,0,28.818-0.021,43.226,0.009c7.578,0.016,15.033,0.991,22.296,3.217
	c6.671,2.044,12.85,5.06,18.293,9.468c8.388,6.793,13.614,15.491,15.605,26.116c0.464,2.475,0.741,4.969,0.789,7.487
	c0.056,2.917,0.175,5.833,0.161,8.749c-0.014,2.916-0.125,5.838-0.727,8.706c-0.211,1.005-0.509,2.001-0.875,2.96
	c-0.235,0.618-0.611,1.203-1.017,1.731c-1.49,1.943-4.277,1.953-5.718,1.022c-0.725-0.468-1.4-0.995-1.907-1.684
	c-0.69-0.937-1.363-1.895-1.945-2.901c-0.855-1.478-1.504-3.058-2.054-4.676c-2.001-5.883-5.295-10.965-9.574-15.431
	c-5.07-5.292-11.051-9.269-17.742-12.2c-5.162-2.261-10.542-3.774-16.107-4.66c-4.133-0.658-8.291-0.959-12.469-0.962
	c-17.506-0.014-35.012-0.039-52.518,0.02c-3.822,0.013-7.242-1.033-10.435-3.026c-2.298-1.434-4.342-3.179-6.237-5.105
	c-3.705-3.767-6.749-8.035-9.46-12.55c-0.762-1.269-1.472-2.57-2.179-3.87c-0.212-0.39-0.382-0.816-0.489-1.246
	c-0.13-0.523,0.198-0.989,0.724-1.111c0.216-0.05,0.444-0.053,0.668-0.058c0.404-0.009,0.808-0.004,1.212-0.004
	C18.792,113.166,34.951,113.166,51.111,113.167z"/>
<path fill="#FFFFFF" d="M306.666,113.166c16.294,0,32.587,0,48.881,0.001c0.449,0,0.901-0.021,1.345,0.03
	c0.739,0.085,1.084,0.628,0.868,1.351c-0.102,0.341-0.254,0.672-0.422,0.988c-2.727,5.128-5.874,9.974-9.703,14.357
	c-1.716,1.964-3.564,3.795-5.623,5.404c-2.206,1.725-4.573,3.161-7.255,4.032c-1.504,0.489-3.037,0.787-4.624,0.779
	c-0.494-0.002-0.987,0.002-1.481,0.002c-17.461,0-34.922-0.014-52.382,0.007c-7.08,0.008-14.05,0.874-20.856,2.893
	c-7.882,2.338-15.075,5.981-21.381,11.297c-3.908,3.294-7.253,7.08-9.901,11.464c-1.373,2.273-2.511,4.656-3.378,7.169
	c-0.703,2.04-1.536,4.023-2.646,5.88c-0.694,1.161-1.478,2.252-2.508,3.144c-0.987,0.855-2.099,1.338-3.443,1.252
	c-1.337-0.086-2.412-0.628-3.246-1.665c-0.599-0.745-0.991-1.599-1.288-2.499c-0.667-2.018-0.919-4.108-1.082-6.215
	c-0.393-5.07-0.258-10.145,0.059-15.205c0.585-9.345,3.663-17.786,9.59-25.109c4.158-5.137,9.275-9.089,15.122-12.124
	c5.132-2.664,10.565-4.464,16.218-5.619c5.559-1.136,11.181-1.622,16.852-1.618C278.477,113.173,292.572,113.166,306.666,113.166z"
	/>
<path fill="#FFFFFF" d="M209.846,1.995c2.095-0.163,24.54-0.107,25.627,0.066c0.028,0.233,0.077,0.488,0.085,0.745
	c0.015,0.448,0.006,0.897,0.006,1.346c0,22.887,0.01,45.774-0.011,68.661c-0.003,3.364-0.046,6.735-0.256,10.091
	c-0.321,5.122-1.663,9.987-4.217,14.472c-3.101,5.446-7.702,9.141-13.474,11.449c-3.013,1.205-6.144,1.958-9.349,2.429
	c-4.278,0.629-8.578,0.732-12.89,0.585c-1.793-0.061-3.59-0.058-5.368-0.355c-0.398-0.066-0.797-0.129-1.188-0.223
	c-0.427-0.102-0.707-0.387-0.809-0.814c-0.116-0.488,0.069-0.901,0.449-1.189c0.282-0.214,0.621-0.353,0.94-0.516
	c5.441-2.783,10.047-6.569,13.722-11.461c3.214-4.278,5.242-9.068,6.057-14.358c0.404-2.622,0.43-5.275,0.532-7.92
	c0.046-1.21,0.035-2.423,0.036-3.634c0.002-22.528,0.001-45.056,0.004-67.584C209.741,3.214,209.678,2.632,209.846,1.995z"/>
</svg>
